# xmcd
#
# Track frame offsets: 
#        187
#        13232
#        25425
#        38395
#        53687
#        67875
#        81775
#        94775
#        108152
#        122060
#        137302
#        152020
#
# Disc length: 2189 seconds
#
# Revision: 5
# Processed by: cddbd v1.5.2PL0 Copyright (c) Steve Scherf et al.
# Submitted via: ExactAudioCopyFreeDBPlugin 1.0
#
DISCID=88088b0c,8a088a0c,8b088a0c
DTITLE=Muddy Waters - The Best Of Muddy Waters
DYEAR=1987
DGENRE=Blues
TTITLE0=I Just Want To Make Love To You
TTITLE1=Long Distance Call
TTITLE2=Louisiana Blues
TTITLE3=Honey Bee
TTITLE4=Rollin' Stone
TTITLE5=I'm Ready
TTITLE6=Hoochie Coochie
TTITLE7=She Moves Me
TTITLE8=I Want You To Love Me
TTITLE9=Standing Around Crying
TTITLE10=Still A Fool
TTITLE11=I Can't Be Satisfied
EXTD=YEAR: 1987 ID3G: 0
EXTT0=
EXTT1=
EXTT2=
EXTT3=
EXTT4=
EXTT5=
EXTT6=
EXTT7=
EXTT8=
EXTT9=
EXTT10=
EXTT11=
PLAYORDER=
